<svg id="Слой_1" data-name="Слой 1" xmlns="http://www.w3.org/2000/svg" viewBox="0 0 433.91 264.22">
  <defs>
    <style>
      .cls-1 {
        fill: #01012f;
      }
    </style>
  </defs>
  <title>фиту2</title>
  <g>
    <path class="cls-1" d="M340,70c-19.83,4.36-39,11.25-56,21.77a127.57,127.57,0,0,0-23.37,18.39,94.15,94.15,0,0,0-17.54,23.58c-4.47,8.64-7.4,18.2-7.12,27.7a37.13,37.13,0,0,0,.88,7,32.59,32.59,0,0,0,2.36,6.55,29.39,29.39,0,0,0,3.88,5.74,30.14,30.14,0,0,0,5.21,4.67,38.18,38.18,0,0,0,13.17,5.55,62.59,62.59,0,0,0,14.7,1.45,103.74,103.74,0,0,0,15-1.29c5-.8,9.93-1.89,14.87-3.09a132.59,132.59,0,0,1-14.54,4.72,97.67,97.67,0,0,1-15.18,2.6,64.83,64.83,0,0,1-15.6-.53,41.2,41.2,0,0,1-15-5.5,35.41,35.41,0,0,1-6.35-5.19,33.85,33.85,0,0,1-4.82-6.69,37.26,37.26,0,0,1-3-7.66,41.71,41.71,0,0,1-1.25-8.06A53.24,53.24,0,0,1,232,145.75,73.6,73.6,0,0,1,237.75,131a97.59,97.59,0,0,1,18.89-24.88,124.71,124.71,0,0,1,11.93-10c1.05-.75,2.09-1.53,3.16-2.26L275,91.71c2.2-1.36,4.4-2.72,6.67-4A147.69,147.69,0,0,1,340,70Z" transform="translate(-230.21 -18.46)"/>
    <path class="cls-1" d="M416,66.42a48.68,48.68,0,0,0,2.58-28.23,8.24,8.24,0,0,0-1.94-4.36,6,6,0,0,0-5.58-1.18,14.81,14.81,0,0,0-5.18,2.85c-7.65,5.82-13.91,13.29-19.38,21.2-10.65,15.38-18.46,32.47-25.82,49.6-15.91,37.08-31.94,74.24-49.1,110.74-8.26,17.57-17.78,34.74-30.35,49.63a57.79,57.79,0,0,1-11.91,11.26c-4.56,3-10,5-15.45,4.72-9.2-.48-17.35-7.62-20.12-16.41s-.56-18.69,4.71-26.25a30.11,30.11,0,0,0-1.33,21.94,15.89,15.89,0,0,0,4.89,7.73c3.91,3.06,9.56,3,14.17,1.17,10.52-4.21,19.42-14.78,25.58-23.94,6.67-9.91,11.66-20.83,16.4-31.76q12.38-28.59,23.58-57.67c14-36.31,28-71.76,53-102.12,7.82-9.5,16.2-19,26.57-25.77,4.09-2.67,9-4.94,13.72-3.87,5.53,1.25,9.23,6.79,10.24,12.37C427.13,48.14,422.07,58.18,416,66.42Z" transform="translate(-230.21 -18.46)"/>
    <path class="cls-1" d="M366.5,118.5a387.61,387.61,0,0,1,46.83-43.59c2.06-1.71,4.26-3.24,6.41-4.84s4.29-3.22,6.5-4.74c4.43-3,8.81-6.13,13.39-8.94l3.4-2.17c1.13-.74,2.28-1.42,3.46-2.08l7-4c2.35-1.31,4.76-2.54,7.13-3.81,1.2-.62,2.38-1.27,3.59-1.87l3.65-1.76c4.83-2.41,9.81-4.51,14.78-6.66l7.58-2.91c1.26-.5,2.55-.93,3.83-1.36l3.86-1.3a207.26,207.26,0,0,1,31.69-7.75,170.68,170.68,0,0,1,32.76-2.15,143.24,143.24,0,0,1,32.71,4.87,112.72,112.72,0,0,1,30.55,13.42A93.12,93.12,0,0,1,639,47.17c2.13,1.86,4,4,5.95,6a85,85,0,0,1,5.26,6.69l1.22,1.75a17.61,17.61,0,0,1,1.17,1.78l2.19,3.66c.71,1.24,1.3,2.54,2,3.8.32.64.65,1.27.95,1.91l.81,2,.81,2a17.82,17.82,0,0,1,.75,2l1.31,4.07c.4,1.36.68,2.77,1,4.15.16.69.34,1.38.47,2.08l.33,2.11A75.73,75.73,0,0,1,661,124.7c-.86,2.66-1.62,5.35-2.73,7.91-.53,1.28-1,2.6-1.58,3.85l-1.8,3.75c-.31.62-.59,1.26-.91,1.86l-1,1.81-2,3.6c-.72,1.18-1.49,2.32-2.24,3.47s-1.48,2.32-2.32,3.4a141.41,141.41,0,0,1-22.11,23.89c-4.09,3.54-8.38,6.81-12.73,10-2.22,1.52-4.41,3.07-6.64,4.56L598,197c-2.3,1.38-4.66,2.64-7,4s-4.7,2.53-7.08,3.74c-4.73,2.46-9.62,4.6-14.47,6.78,4.56-2.75,9.22-5.29,13.65-8.23,4.53-2.75,8.87-5.8,13.21-8.81a199.07,199.07,0,0,0,24.2-20.19,137.32,137.32,0,0,0,19.8-24,94.61,94.61,0,0,0,12.31-27.83,71.36,71.36,0,0,0,2-14.84l.08-1.87,0-1.86c-.06-1.24,0-2.48-.14-3.71l-.39-3.69a14.34,14.34,0,0,0-.28-1.84l-.34-1.82L653.26,91c-.14-.6-.31-1.19-.47-1.79-.33-1.19-.6-2.39-1-3.56l-1.22-3.49a15,15,0,0,0-.68-1.72l-.74-1.69-.74-1.7c-.26-.56-.57-1.09-.85-1.64-.59-1.08-1.12-2.2-1.76-3.26l-2-3.13a13.28,13.28,0,0,0-1-1.53l-1.1-1.5-1.1-1.49c-.36-.51-.79-1-1.18-1.43L637,60.26c-1.76-1.76-3.39-3.63-5.3-5.24a82.91,82.91,0,0,0-11.94-9,103.07,103.07,0,0,0-27.67-12,134.26,134.26,0,0,0-30.19-4.62,166.58,166.58,0,0,0-30.8,1.6,211.86,211.86,0,0,0-30.34,6.69l-3.74,1.14c-1.24.38-2.49.75-3.71,1.2L486,42.58c-4.86,1.88-9.76,3.71-14.53,5.86L467.82,50c-1.2.53-2.37,1.12-3.55,1.68-2.36,1.14-4.74,2.23-7.08,3.42-4.64,2.44-9.32,4.82-13.88,7.44s-9.08,5.31-13.59,8c-2.25,1.37-4.42,2.86-6.64,4.29s-4.43,2.87-6.58,4.39A520.31,520.31,0,0,0,366.5,118.5Z" transform="translate(-230.21 -18.46)"/>
    <path class="cls-1" d="M377,124" transform="translate(-230.21 -18.46)"/>
    <path class="cls-1" d="M472,85" transform="translate(-230.21 -18.46)"/>
    <path class="cls-1" d="M450,96" transform="translate(-230.21 -18.46)"/>
    <g>
      <path class="cls-1" d="M455.34,154.45l14.78-9.56L460.64,163l9.15-5.91,13-8.34L489,136.88a8.12,8.12,0,0,0-.19-6.8,3.11,3.11,0,0,0-2.58-1.63,9,9,0,0,0-4.07.82c-5.75,2.38-11,6-16.29,9.22-5.63,3.45-11.14,7.08-16.76,10.53-2.2,1.35-4.38,2.72-6.57,4.07-2.74,5.21-5.35,10.15-7.66,14.55Q445.12,161.06,455.34,154.45Z" transform="translate(-230.21 -18.46)"/>
      <path class="cls-1" d="M408.46,174.39q-11,7-22,14s-.13.06-.15.1l46.5-92.55c1.17-2.34,1.05-7.63-2.06-8.58a4.51,4.51,0,0,0-3.21.62c-7.3,3.52-13.77,8.52-20.32,13.24q-10.47,7.55-20.84,15.23C382.79,119.11,379,123,375,125l39-20.53c-14.58,29-46.19,92-46.27,92.11a7.45,7.45,0,0,0,.47,6.64c2.18,3.87,5.71,2.5,8.92.93,6.22-3,11.71-7.2,17.56-10.87,6-3.78,12.05-7.61,18.05-11.44l8-15.12Z" transform="translate(-230.21 -18.46)"/>
      <path class="cls-1" d="M467,169.6l-4.76,3.14-4.76,3.13-4.72,3.1-.69.45-7.56,14.43c-2.61,5,2.19,10.93,7.51,8.84,3.52-1.39,6.42-4,9.51-6.11,3.34-2.25,6.66-4.5,10-6.79q4.43-3.06,8.81-6.15c1.11-.79,2.45-2.16,3.73-2.64l-22.59,8.53,13-24.86-2.76,1.82Z" transform="translate(-230.21 -18.46)"/>
      <path class="cls-1" d="M475.75,90c1.15-2.18.94-5.7-.78-7.55-2.77-3-7.45.11-9.94,2q-9.09,7-17.92,14.43c2.06-1.37,4.46-1.71,6.73-2.58l4.87-1.88-38,72.23q10.9-6.85,21.87-13.63Z" transform="translate(-230.21 -18.46)"/>
      <path class="cls-1" d="M451.86,168.65q-7.46,4.82-14.89,9.65l-9.52,6.19-2.22,1.44,9.64-18.29q-10,6.44-20.05,12.84l-2.13,1.36L405.25,196a6.5,6.5,0,0,0,2.72,8.78,4.36,4.36,0,0,0,3.42.53,9.52,9.52,0,0,0,2.08-1.07c.67-.42,1.36-.82,2-1.23l2.34-1.45,2.75-1.73c1-.65,2.07-1.31,3.11-2l3.45-2.21,3.74-2.41,4-2.59,4.22-2.74,4.4-2.87,4.54-3q2-1.29,4-2.6L460.64,163Z" transform="translate(-230.21 -18.46)"/>
      <path class="cls-1" d="M503.8,183.93c9.39-17.93,27.41-52.33,27.46-52.41a7.13,7.13,0,0,0-2.13-8.5,4.48,4.48,0,0,0-.57-.36c-3.42-1.82-7.16,1.74-10,3.44-4.4,2.68-8.75,5.41-13.11,8.16q-8.53,5.38-17,10.83l-5.67,3.64c-2.42,4.63-5.34,10.2-8.35,15.94l1.87-1.24,4.52-3,4.36-2.89,4.18-2.77,3.94-2.62q1.84-1.21,3.68-2.44l3.38-2.24,3-2,2.66-1.77,2.25-1.49,1.8-1.2,1.3-.87.78-.52s.2-.09.22-.15l-25.67,49c-2.41,4.6,1.69,10.7,7,9.14a15.16,15.16,0,0,0,3.91-2q8.64-5.64,17.3-11.26T532,173l0,0Z" transform="translate(-230.21 -18.46)"/>
    </g>
    <g>
      <path class="cls-1" d="M626.87,102.05c2.76-6,7.68-14,6.48-20.83a5.18,5.18,0,0,0-1.48-3.12,3.59,3.59,0,0,0-2.34-.85,6.28,6.28,0,0,0-3.38,1c-4.19,2.58-8,6.47-11.69,9.77-2,1.82-4,3.68-6,5.56-.7.68-1.61,2-2.5,2.43l12.28-5.92A239.49,239.49,0,0,1,603,122.62q-3.59,6.39-7.53,12.6l19-9.68A254.09,254.09,0,0,0,626.87,102.05Z" transform="translate(-230.21 -18.46)"/>
      <path class="cls-1" d="M589.34,144.54q-5.58,8.15-11.66,16A319.9,319.9,0,0,1,547,194.36a274.57,274.57,0,0,1-35.55,28.8A197,197,0,0,1,471,244.46c-14.23,5.36-29.36,8.74-44.59,8.31A82,82,0,0,1,404,249.18a80.43,80.43,0,0,1-20.61-9.81,90.3,90.3,0,0,1-17.28-15.16,122.29,122.29,0,0,1-13.6-18.71,122,122,0,0,0,13,19.24,91.42,91.42,0,0,0,17,16,82.66,82.66,0,0,0,20.79,10.79A85,85,0,0,0,426.31,256c15.75,1,31.51-2,46.36-7A202.62,202.62,0,0,0,515,228.61a281.82,281.82,0,0,0,37.51-28.27,330.26,330.26,0,0,0,32.79-33.7,315,315,0,0,0,25.89-35.58l-2.23,1.38Z" transform="translate(-230.21 -18.46)"/>
      <path class="cls-1" d="M554.74,156l36.44-65.29a6.72,6.72,0,0,0-.69-7.37A5.08,5.08,0,0,0,588,81.59a6.5,6.5,0,0,0-4.06.49c-5,2-8.93,6.75-12.79,10.32l-5.69,5.28A17.11,17.11,0,0,1,563,100l11-5.33-38.54,69.06a6.5,6.5,0,0,0,2.51,8.85c4.76,2.65,11.12-3.55,14.88-5.84,7.49-4.55,15-9,22.49-13.62q7-4.27,14-8.58,3.15-4.6,6.13-9.32Z" transform="translate(-230.21 -18.46)"/>
      <path class="cls-1" d="M645,110l-30.52,15.54c-.55.94-1.09,1.89-1.66,2.82s-1.12,1.8-1.68,2.7l25.14-15.62Z" transform="translate(-230.21 -18.46)"/>
    </g>
    <path class="cls-1" d="M494,94c2.74-2.59,5.53-4.87,8-7.31a33.55,33.55,0,0,0,6.14-7.77,24.26,24.26,0,0,0,2.79-9.25A80.3,80.3,0,0,0,511,59a23.72,23.72,0,0,1,3.86,10.66,20,20,0,0,1-2.33,11.65,23.79,23.79,0,0,1-8.11,8.46A30.86,30.86,0,0,1,494,94Z" transform="translate(-230.21 -18.46)"/>
    <path class="cls-1" d="M511,95c2.74-2.59,5.53-4.87,8-7.31a33.55,33.55,0,0,0,6.14-7.77,24.26,24.26,0,0,0,2.79-9.25A80.3,80.3,0,0,0,528,60a23.72,23.72,0,0,1,3.86,10.66,20,20,0,0,1-2.33,11.65,23.79,23.79,0,0,1-8.11,8.46A30.86,30.86,0,0,1,511,95Z" transform="translate(-230.21 -18.46)"/>
    <path class="cls-1" d="M529,95c2.74-2.59,5.53-4.87,8-7.31a33.55,33.55,0,0,0,6.14-7.77,24.26,24.26,0,0,0,2.79-9.25A80.3,80.3,0,0,0,546,60a23.72,23.72,0,0,1,3.86,10.66,20,20,0,0,1-2.33,11.65,23.79,23.79,0,0,1-8.11,8.46A30.86,30.86,0,0,1,529,95Z" transform="translate(-230.21 -18.46)"/>
  </g>
</svg>
