<svg width="229" height="201" viewBox="0 0 229 201" fill="none" xmlns="http://www.w3.org/2000/svg">
<rect x="128.232" y="0.681074" width="141.421" height="141.421" transform="rotate(45 128.232 0.681074)" fill="#55C3FD"/>
<rect x="116.447" y="0.681074" width="141.421" height="141.421" transform="rotate(45 116.447 0.681074)" fill="#2A4983"/>
<rect x="100.039" y="1.38818" width="140.421" height="140.421" transform="rotate(45 100.039 1.38818)" fill="white" stroke="#22427E"/>
<path d="M76.5509 94.9792H89.5145" stroke="#C4C2D0" stroke-width="1.2"/>
<path d="M57.6947 73.766V113.835" stroke="url(#paint0_linear)" stroke-width="2.5"/>
<path d="M50.6237 110.3H55.3377H64.7658C79.6293 110.3 80.0865 77.3016 64.7658 77.3016H50.6237C35.303 77.3016 35.303 110.3 50.6237 110.3Z" stroke="url(#paint1_linear)" stroke-width="2.5"/>
<path fill-rule="evenodd" clip-rule="evenodd" d="M101.283 145.447C102.096 145.447 102.755 146.106 102.755 146.919V164.581C102.755 165.394 102.096 166.053 101.283 166.053C100.47 166.053 99.8113 165.394 99.8113 164.581V146.919C99.8113 146.106 100.47 145.447 101.283 145.447Z" fill="#1A215F"/>
<path fill-rule="evenodd" clip-rule="evenodd" d="M113.941 153.69C114.754 153.69 115.413 154.349 115.413 155.162V164.287C115.413 165.1 114.754 165.759 113.941 165.759C113.128 165.759 112.469 165.1 112.469 164.287V155.162C112.469 154.349 113.128 153.69 113.941 153.69Z" fill="#1A215F"/>
<path fill-rule="evenodd" clip-rule="evenodd" d="M107.465 153.69C108.278 153.69 108.937 154.349 108.937 155.162V164.287C108.937 165.1 108.278 165.759 107.465 165.759C106.652 165.759 105.993 165.1 105.993 164.287V155.162C105.993 154.349 106.652 153.69 107.465 153.69Z" fill="#1A215F"/>
<path fill-rule="evenodd" clip-rule="evenodd" d="M95.1014 153.69C95.9143 153.69 96.5733 154.349 96.5733 155.162V164.287C96.5733 165.1 95.9143 165.759 95.1014 165.759C94.2885 165.759 93.6296 165.1 93.6296 164.287V155.162C93.6296 154.349 94.2885 153.69 95.1014 153.69Z" fill="#1A215F"/>
<path fill-rule="evenodd" clip-rule="evenodd" d="M101.125 145.931C101.347 146.168 101.334 146.541 101.096 146.763L83.434 163.248C83.1963 163.47 82.8237 163.457 82.6019 163.219C82.38 162.981 82.3928 162.609 82.6306 162.387L100.4 145.744C100.638 145.522 100.903 145.693 101.125 145.931Z" fill="#1A215F"/>
<path fill-rule="evenodd" clip-rule="evenodd" d="M113.789 154.178C114.007 154.42 113.988 154.792 113.747 155.01L102.166 165.759C101.925 165.977 101.064 166.1 100.846 165.859C100.628 165.618 100.647 165.245 100.889 165.027L113.058 153.984C113.299 153.766 113.572 153.937 113.789 154.178Z" fill="#1A215F"/>
<path fill-rule="evenodd" clip-rule="evenodd" d="M107.314 154.179C107.531 154.421 107.512 154.793 107.27 155.01L95.9845 165.465C95.7428 165.682 94.8813 165.806 94.6637 165.564C94.4462 165.322 94.4658 164.95 94.7075 164.733L106.582 153.984C106.824 153.767 107.096 153.937 107.314 154.179Z" fill="#1A215F"/>
<path fill-rule="evenodd" clip-rule="evenodd" d="M94.929 154.157C95.1589 154.386 95.1589 154.759 94.929 154.989L93.1628 156.755C92.9329 156.985 92.5601 156.985 92.3302 156.755C92.1003 156.525 92.1003 156.153 92.3302 155.923L93.924 154.278C94.1539 154.049 94.6991 153.927 94.929 154.157Z" fill="#1A215F"/>
<path fill-rule="evenodd" clip-rule="evenodd" d="M117.345 162.447C117.548 162.701 117.507 163.072 117.253 163.275L114.824 165.465C114.57 165.668 113.685 165.792 113.481 165.538C113.278 165.284 113.319 164.914 113.573 164.71L116.517 162.355C116.771 162.152 117.142 162.193 117.345 162.447Z" fill="#1A215F"/>
<path fill-rule="evenodd" clip-rule="evenodd" d="M110.868 162.447C111.072 162.701 111.03 163.072 110.776 163.275L108.348 165.465C108.094 165.668 107.208 165.792 107.005 165.538C106.802 165.284 106.843 164.914 107.097 164.71L110.041 162.355C110.295 162.152 110.665 162.193 110.868 162.447Z" fill="#1A215F"/>
<path d="M111.16 147.113C111.69 147.932 112.431 150.06 111.16 152.024M109.056 147.113C109.585 147.932 110.326 150.06 109.056 152.024M106.952 147.113C107.481 147.932 108.222 150.06 106.952 152.024" stroke="#1A215F" stroke-width="0.3" stroke-linecap="round"/>
<path d="M90.6931 73.766V113.835" stroke="url(#paint2_linear)" stroke-width="2.5"/>
<path d="M113.085 73.766L90.6931 98.5148" stroke="url(#paint3_linear)" stroke-width="2.5"/>
<path d="M114.263 112.657L96.5856 91.4437" stroke="url(#paint4_linear)" stroke-width="2.5"/>
<path d="M128.405 113.835V73.766H149.619V109.121" stroke="url(#paint5_linear)" stroke-width="2.5"/>
<path d="M78.908 115.014V131.513M78.908 131.513H69.4799L57.6947 118.549V113.835M78.908 131.513V113.835" stroke="#C4C2D0" stroke-width="1.2"/>
<path d="M90.6931 113.835V131.513H135.476L149.619 111.478V109.121" stroke="#C4C2D0" stroke-width="1.2"/>
<path d="M160.225 103.229V84.3726V80.8371" stroke="#C4C2D0" stroke-width="1.2"/>
<path d="M146.083 69.052L127.227 49.0173H78.9079" stroke="#B5D6EA" stroke-width="1.2"/>
<path d="M114.263 112.657L116.62 115.014H128.405V113.835" stroke="#C4C2D0" stroke-width="1.2"/>
<path d="M113.085 73.766L123.691 63.1594V60.8024H68.3013L57.6947 71.409V73.766" stroke="#B5D6EA" stroke-width="1.2"/>
<path d="M90.6931 73.766V60.8024" stroke="#B5D6EA" stroke-width="1.2"/>
<circle cx="57.6947" cy="113.835" r="1.02851" fill="white" stroke="#1A215F" stroke-width="0.3"/>
<circle cx="57.6947" cy="73.766" r="1.02851" fill="white" stroke="#1A215F" stroke-width="0.3"/>
<circle cx="90.6931" cy="73.766" r="1.02851" fill="white" stroke="#1A215F" stroke-width="0.3"/>
<circle cx="113.085" cy="73.766" r="1.02851" fill="white" stroke="#1A215F" stroke-width="0.3"/>
<circle cx="78.9079" cy="49.0173" r="1.02851" fill="white" stroke="#1A215F" stroke-width="0.3"/>
<circle cx="145.847" cy="68.5806" r="1.02851" fill="white" stroke="#1A215F" stroke-width="0.3"/>
<circle cx="160.225" cy="80.8371" r="1.02851" fill="white" stroke="#1A215F" stroke-width="0.3"/>
<circle cx="160.225" cy="103.229" r="1.02851" fill="white" stroke="#1A215F" stroke-width="0.3"/>
<circle cx="149.6" cy="109.243" r="1.15" fill="white" stroke="#1A215F" stroke-width="0.3"/>
<circle cx="128.405" cy="113.835" r="1.02851" fill="white" stroke="#1A215F" stroke-width="0.3"/>
<circle cx="114.263" cy="112.657" r="1.02851" fill="white" stroke="#1A215F" stroke-width="0.3"/>
<circle cx="90.6931" cy="113.835" r="1.02851" fill="white" stroke="#1A215F" stroke-width="0.3"/>
<circle cx="78.9079" cy="113.835" r="1.02851" fill="white" stroke="#1A215F" stroke-width="0.3"/>
<circle cx="89.5145" cy="94.9792" r="1.02851" fill="white" stroke="#1A215F" stroke-width="0.3"/>
<circle cx="77.258" cy="94.9792" r="1.02851" fill="white" stroke="#1A215F" stroke-width="0.3"/>
<defs>
<linearGradient id="paint0_linear" x1="58.1947" y1="73.766" x2="58.1947" y2="113.835" gradientUnits="userSpaceOnUse">
<stop stop-color="#0E4C8D"/>
<stop offset="1" stop-color="#2B376F"/>
</linearGradient>
<linearGradient id="paint1_linear" x1="57.6094" y1="77.3016" x2="57.6094" y2="110.3" gradientUnits="userSpaceOnUse">
<stop stop-color="#0E4C8D"/>
<stop offset="1" stop-color="#2B376F"/>
</linearGradient>
<linearGradient id="paint2_linear" x1="91.1931" y1="73.766" x2="91.1931" y2="113.835" gradientUnits="userSpaceOnUse">
<stop stop-color="#0E4C8D"/>
<stop offset="1" stop-color="#2B376F"/>
</linearGradient>
<linearGradient id="paint3_linear" x1="101.889" y1="73.766" x2="101.889" y2="98.5148" gradientUnits="userSpaceOnUse">
<stop stop-color="#0E4C8D"/>
<stop offset="1" stop-color="#2B376F"/>
</linearGradient>
<linearGradient id="paint4_linear" x1="105.424" y1="91.4437" x2="105.424" y2="112.657" gradientUnits="userSpaceOnUse">
<stop stop-color="#0E4C8D"/>
<stop offset="1" stop-color="#2B376F"/>
</linearGradient>
<linearGradient id="paint5_linear" x1="139.012" y1="73.766" x2="139.012" y2="113.835" gradientUnits="userSpaceOnUse">
<stop stop-color="#0E4C8D"/>
<stop offset="1" stop-color="#2B376F"/>
</linearGradient>
</defs>
</svg>
