<svg width="512" height="538" viewBox="0 0 512 538" fill="none" xmlns="http://www.w3.org/2000/svg">
<path d="M159.88 269.328C159.88 272.876 157.003 275.753 153.455 275.753C149.907 275.753 147.03 272.876 147.03 269.328C147.03 265.78 149.907 262.903 153.455 262.903C157.003 262.903 159.88 265.78 159.88 269.328Z" fill="#FDAF17"/>
<path d="M260.942 112.071C260.942 115.619 258.066 118.495 254.517 118.495C250.969 118.495 248.093 115.619 248.093 112.071C248.093 108.522 250.969 105.646 254.517 105.646C258.066 105.646 260.942 108.522 260.942 112.071Z" fill="#FDAF17"/>
<path d="M349.156 269.344C349.156 265.795 352.033 262.919 355.581 262.919C359.129 262.919 362.006 265.795 362.006 269.344C362.006 272.89 359.129 275.768 355.581 275.768C352.033 275.768 349.156 272.89 349.156 269.344Z" fill="#FDAF17"/>
<path d="M248.093 426.599C248.093 423.051 250.969 420.174 254.517 420.174C258.066 420.174 260.942 423.051 260.942 426.599C260.942 430.147 258.066 433.024 254.517 433.024C250.969 433.024 248.093 430.147 248.093 426.599Z" fill="#FDAF17"/>
<path fill-rule="evenodd" clip-rule="evenodd" d="M394.679 276.263H366.993C364.653 280.114 360.418 282.687 355.581 282.687C348.211 282.687 342.237 276.711 342.237 269.344C342.237 261.974 348.211 256 355.581 256C360.418 256 364.653 258.572 366.993 262.425H411.335C417.513 262.425 420.617 269.895 416.242 274.268L388.315 302.195V377.56H374.477V299.338C374.477 297.498 375.209 295.732 376.51 294.432L394.679 276.263ZM355.087 269.344C355.087 269.617 355.308 269.838 355.581 269.838C355.854 269.838 356.075 269.617 356.075 269.344C356.075 269.069 355.854 268.85 355.581 268.85C355.308 268.85 355.087 269.069 355.087 269.344ZM337.295 353.217V426.994H351.133V336.56C351.133 330.382 343.663 327.279 339.288 331.654L257.378 413.564C256.457 413.362 255.5 413.255 254.517 413.255C247.15 413.255 241.174 419.229 241.174 426.599C241.174 433.969 247.15 439.943 254.517 439.943C261.887 439.943 267.861 433.969 267.861 426.599C267.861 425.393 267.701 424.223 267.4 423.11L337.295 353.217ZM254.023 426.599C254.023 426.872 254.244 427.093 254.517 427.093C254.792 427.093 255.011 426.872 255.011 426.599C255.011 426.326 254.792 426.105 254.517 426.105C254.244 426.105 254.023 426.326 254.023 426.599ZM254.023 112.07C254.023 112.343 254.244 112.565 254.517 112.565C254.79 112.565 255.011 112.343 255.011 112.07C255.011 111.797 254.79 111.576 254.517 111.576C254.244 111.576 254.023 111.797 254.023 112.07ZM254.517 98.7268C261.887 98.7268 267.861 104.701 267.861 112.07C267.861 119.44 261.887 125.414 254.517 125.414C253.537 125.414 252.578 125.308 251.657 125.107L169.718 207.048C165.358 211.407 157.903 208.319 157.903 202.153V111.674H171.741V185.454L241.634 115.56C241.334 114.447 241.174 113.278 241.174 112.07C241.174 104.701 247.148 98.7268 254.517 98.7268ZM152.961 269.328C152.961 269.601 153.182 269.822 153.455 269.822C153.728 269.822 153.949 269.601 153.949 269.328C153.949 269.055 153.728 268.834 153.455 268.834C153.182 268.834 152.961 269.053 152.961 269.328ZM153.455 255.984C160.824 255.984 166.799 261.958 166.799 269.328C166.799 276.698 160.824 282.672 153.455 282.672C148.618 282.672 144.383 280.098 142.043 276.247H97.6575C91.4878 276.247 88.4067 268.788 92.7638 264.431L120.72 236.475V161.11H134.558V239.339C134.558 241.176 133.829 242.935 132.531 244.234L114.356 262.409H142.043C144.383 258.556 148.618 255.984 153.455 255.984Z" fill="#FDAF17"/>
<path fill-rule="evenodd" clip-rule="evenodd" d="M90.0792 324.197H146.375C148.205 324.197 149.967 324.923 151.269 326.225L197.112 372.068C198.411 373.365 199.138 375.126 199.138 376.961V423.043H185.301V379.827L143.51 338.035H90.0792V324.197Z" fill="#FDAF17"/>
<path fill-rule="evenodd" clip-rule="evenodd" d="M420.211 209.545H363.915C362.065 209.545 360.309 208.803 359.022 207.518L313.178 161.674C311.881 160.376 311.151 158.616 311.151 156.78V104.772H324.989V153.915L366.782 195.707H420.211V209.545Z" fill="#FDAF17"/>
<path d="M307.398 423.043L418.1 312.34C418.1 312.34 438.857 292.571 438.857 267.861C438.857 249.457 427.342 234.889 421.465 228.654C487.946 294.453 483.836 333.484 462.579 356.819L281.699 537.699C276.597 477.234 279.681 449.497 307.398 423.043Z" fill="#FDAF17"/>
<path d="M418.1 225.359L307.398 114.656C279.738 88.2023 276.662 60.4667 281.752 0L462.579 180.88C462.579 180.88 512 225.359 512 267.861C512 312.34 462.579 356.819 462.579 356.819C483.834 333.484 487.946 294.454 421.465 228.653C420.362 227.563 419.241 226.464 418.1 225.359Z" fill="#005A42"/>
<path d="M204.602 423.043L93.8996 312.34C23.9223 244.543 27.8127 204.603 49.4209 180.88C49.4209 180.88 0 225.359 0 269.838C0 312.34 49.4209 356.819 49.4209 356.819L230.248 537.699C235.338 477.232 232.262 449.497 204.602 423.043Z" fill="#005A42"/>
<path d="M204.602 114.656L93.9001 225.359C93.9001 225.359 73.1434 245.127 73.1434 269.838C73.1434 288.244 84.6594 302.811 90.536 309.046C91.6379 310.136 92.7591 311.235 93.9001 312.34C93.9001 312.34 92.5488 311.181 90.536 309.046C24.0543 243.245 28.1655 204.215 49.4214 180.88L230.301 0C235.403 60.4666 232.321 88.2022 204.602 114.656Z" fill="#FDAF17"/>
<path d="M222.254 197.594C222.254 201.667 218.966 204.968 214.91 204.968C210.855 204.968 207.568 201.667 207.568 197.594C207.568 193.522 210.855 190.22 214.91 190.22C218.966 190.22 222.254 193.522 222.254 197.594Z" fill="#FDAF17"/>
<path d="M280.841 320.126C280.841 324.199 277.553 327.5 273.499 327.5C269.443 327.5 266.155 324.199 266.155 320.126C266.155 316.054 269.443 312.751 273.499 312.751C277.553 312.751 280.841 316.054 280.841 320.126Z" fill="#FDAF17"/>
<path fill-rule="evenodd" clip-rule="evenodd" d="M286.783 281.661L342.941 338.066L335.779 345.197V349.866H295.114C293.273 349.866 291.508 349.133 290.209 347.828L276.537 334.095C275.559 334.308 274.543 334.421 273.499 334.421C265.593 334.421 259.238 327.992 259.238 320.127C259.238 312.261 265.593 305.834 273.499 305.834C281.404 305.834 287.76 312.261 287.76 320.127C287.76 321.809 287.469 323.426 286.935 324.926L297.988 336.028H321.386L272.117 286.544C269.438 283.852 269.419 279.487 272.117 276.779L308.961 239.772H290.039L267.258 262.654L251.2 278.783V347.919C251.2 354.087 243.734 357.18 239.375 352.802L210.009 323.307C208.73 322.022 207.991 320.273 207.991 318.425V210.098C203.604 207.653 200.649 202.958 200.649 197.595C200.649 189.729 207.006 183.301 214.909 183.301C222.815 183.301 229.172 189.729 229.172 197.595C229.172 202.958 226.217 207.653 221.828 210.098V315.568L237.362 331.167V181.461L211.138 155.122L220.943 145.358L249.184 173.722C250.483 175.026 251.2 176.785 251.2 178.605V259.171L282.26 227.973C283.559 226.668 285.324 225.934 287.165 225.934H325.608C331.768 225.934 334.858 233.375 330.513 237.74L286.783 281.661ZM273.922 320.127C273.922 319.846 273.704 319.672 273.499 319.672C273.293 319.672 273.076 319.846 273.076 320.127C273.076 320.407 273.293 320.583 273.499 320.583C273.704 320.583 273.922 320.407 273.922 320.127ZM215.334 197.595C215.334 197.315 215.115 197.139 214.909 197.139C214.706 197.139 214.486 197.315 214.486 197.595C214.486 197.875 214.706 198.051 214.909 198.051C215.115 198.051 215.334 197.875 215.334 197.595Z" fill="#FDAF17"/>
</svg>
